<svg width="20" height="21" viewBox="0 0 20 21" fill="none" xmlns="http://www.w3.org/2000/svg">
<path d="M10.0001 11.2845C10.4603 11.2845 10.8334 10.9114 10.8334 10.4512C10.8334 9.99093 10.4603 9.61783 10.0001 9.61783C9.53984 9.61783 9.16675 9.99093 9.16675 10.4512C9.16675 10.9114 9.53984 11.2845 10.0001 11.2845Z" stroke="#98A2B3" stroke-width="1.66667" stroke-linecap="round" stroke-linejoin="round"/>
<path d="M10.0001 5.45117C10.4603 5.45117 10.8334 5.07807 10.8334 4.61783C10.8334 4.1576 10.4603 3.7845 10.0001 3.7845C9.53984 3.7845 9.16675 4.1576 9.16675 4.61783C9.16675 5.07807 9.53984 5.45117 10.0001 5.45117Z" stroke="#98A2B3" stroke-width="1.66667" stroke-linecap="round" stroke-linejoin="round"/>
<path d="M10.0001 17.1178C10.4603 17.1178 10.8334 16.7447 10.8334 16.2845C10.8334 15.8243 10.4603 15.4512 10.0001 15.4512C9.53984 15.4512 9.16675 15.8243 9.16675 16.2845C9.16675 16.7447 9.53984 17.1178 10.0001 17.1178Z" stroke="#98A2B3" stroke-width="1.66667" stroke-linecap="round" stroke-linejoin="round"/>
</svg>
