<svg width="17" height="17" viewBox="0 0 17 17" fill="none" xmlns="http://www.w3.org/2000/svg">
<path d="M6.56004 6.45115C6.71678 6.0056 7.02614 5.62989 7.43334 5.39057C7.84055 5.15126 8.3193 5.06378 8.78483 5.14363C9.25035 5.22348 9.67259 5.4655 9.97676 5.82684C10.2809 6.18817 10.4474 6.6455 10.4467 7.11782C10.4467 8.45115 8.44671 9.11782 8.44671 9.11782M8.50004 11.7845H8.50671M15.1667 8.45115C15.1667 12.1331 12.1819 15.1178 8.50004 15.1178C4.81814 15.1178 1.83337 12.1331 1.83337 8.45115C1.83337 4.76925 4.81814 1.78448 8.50004 1.78448C12.1819 1.78448 15.1667 4.76925 15.1667 8.45115Z" stroke="#98A2B3" stroke-width="1.33333" stroke-linecap="round" stroke-linejoin="round"/>
</svg>
