<svg width="20" height="21" viewBox="0 0 20 21" fill="none" xmlns="http://www.w3.org/2000/svg">
<path fill-rule="evenodd" clip-rule="evenodd" d="M10.0001 3.18286C9.2387 3.18286 8.49186 3.39149 7.84071 3.78607L3.67404 6.31107C3.06132 6.68237 2.55468 7.20539 2.20307 7.82961C1.85146 8.45383 1.66674 9.15816 1.66675 9.8746V15.1179C1.66675 16.223 2.10573 17.2828 2.88714 18.0642C3.66854 18.8456 4.72835 19.2846 5.83341 19.2846H14.1667C15.2718 19.2846 16.3316 18.8456 17.113 18.0642C17.8944 17.2828 18.3334 16.223 18.3334 15.1179V9.87377C18.3332 9.1575 18.1484 8.45318 17.7968 7.82915C17.4452 7.20513 16.9387 6.68228 16.3261 6.31108L12.1595 3.78608C11.5083 3.39149 10.7615 3.18286 10.0001 3.18286ZM8.70447 5.21145C9.09516 4.9747 9.54325 4.84953 10.0001 4.84953C10.4569 4.84953 10.905 4.9747 11.2957 5.21145L15.4624 7.73645C15.8299 7.95917 16.1338 8.27289 16.3448 8.6473C16.5557 9.02166 16.6666 9.44407 16.6667 9.87377V15.1179C16.6667 15.781 16.4034 16.4169 15.9345 16.8857C15.4657 17.3545 14.8298 17.6179 14.1667 17.6179H13.3334V15.1179C13.3334 14.2339 12.9822 13.386 12.3571 12.7609C11.732 12.1358 10.8841 11.7846 10.0001 11.7846C9.11603 11.7846 8.26818 12.1358 7.64306 12.7609C7.01794 13.386 6.66675 14.2339 6.66675 15.1179V17.6179H5.83341C5.17037 17.6179 4.53449 17.3545 4.06565 16.8857C3.59681 16.4169 3.33341 15.781 3.33341 15.1179V9.8746C3.33341 9.44473 3.44424 9.02211 3.65521 8.64758C3.86618 8.27304 4.17016 7.95923 4.53779 7.73646L8.70447 5.21145ZM11.1786 13.9394C11.4912 14.252 11.6667 14.6759 11.6667 15.1179V17.6179H8.33341V15.1179C8.33341 14.6759 8.50901 14.252 8.82157 13.9394C9.13413 13.6269 9.55805 13.4513 10.0001 13.4513C10.4421 13.4513 10.866 13.6269 11.1786 13.9394Z" fill="#2859DF"/>
</svg>
