<svg width="24" height="25" viewBox="0 0 24 25" fill="none" xmlns="http://www.w3.org/2000/svg">
<path d="M10 12.4512C8.9 12.4512 7.95833 12.0595 7.175 11.2762C6.39167 10.4928 6 9.55117 6 8.45117C6 7.35117 6.39167 6.40951 7.175 5.62617C7.95833 4.84284 8.9 4.45117 10 4.45117C11.1 4.45117 12.0417 4.84284 12.825 5.62617C13.6083 6.40951 14 7.35117 14 8.45117C14 9.55117 13.6083 10.4928 12.825 11.2762C12.0417 12.0595 11.1 12.4512 10 12.4512ZM2 18.4512V17.6512C2 17.1012 2.14167 16.5845 2.425 16.1012C2.70833 15.6178 3.1 15.2512 3.6 15.0012C4.56667 14.5178 5.56667 14.1385 6.6 13.8632C7.63333 13.5878 8.69167 13.4505 9.775 13.4512C10.0583 13.4512 10.296 13.5512 10.488 13.7512C10.68 13.9512 10.7757 14.1928 10.775 14.4762C10.7743 14.7595 10.6783 14.9972 10.487 15.1892C10.2957 15.3812 10.0583 15.4768 9.775 15.4762C8.84167 15.4762 7.93733 15.5928 7.062 15.8262C6.18667 16.0595 5.33267 16.3845 4.5 16.8012C4.33333 16.8845 4.20833 17.0012 4.125 17.1512C4.04167 17.3012 4 17.4678 4 17.6512V18.4512H9.775C10.0583 18.4512 10.296 18.5472 10.488 18.7392C10.68 18.9312 10.7757 19.1685 10.775 19.4512C10.7743 19.7338 10.6783 19.9715 10.487 20.1642C10.2957 20.3568 10.0583 20.4525 9.775 20.4512H4C3.45 20.4512 2.97933 20.2555 2.588 19.8642C2.19667 19.4728 2.00067 19.0018 2 18.4512ZM15.85 20.6512L15.7 19.9512C15.5 19.8678 15.3127 19.7805 15.138 19.6892C14.9633 19.5978 14.784 19.4852 14.6 19.3512L13.875 19.5762C13.6583 19.6428 13.446 19.6345 13.238 19.5512C13.03 19.4678 12.8673 19.3345 12.75 19.1512L12.55 18.8012C12.4333 18.6012 12.3917 18.3845 12.425 18.1512C12.4583 17.9178 12.5667 17.7262 12.75 17.5762L13.3 17.1012C13.2667 16.8678 13.25 16.6512 13.25 16.4512C13.25 16.2512 13.2667 16.0345 13.3 15.8012L12.75 15.3262C12.5667 15.1762 12.4583 14.9885 12.425 14.7632C12.3917 14.5378 12.4333 14.3255 12.55 14.1262L12.775 13.7512C12.8917 13.5678 13.05 13.4345 13.25 13.3512C13.45 13.2678 13.6583 13.2595 13.875 13.3262L14.6 13.5512C14.7833 13.4178 14.9627 13.3052 15.138 13.2132C15.3133 13.1212 15.5007 13.0338 15.7 12.9512L15.85 12.2262C15.9 11.9928 16.0127 11.8055 16.188 11.6642C16.3633 11.5228 16.5673 11.4518 16.8 11.4512H17.2C17.4333 11.4512 17.6377 11.5262 17.813 11.6762C17.9883 11.8262 18.1007 12.0178 18.15 12.2512L18.3 12.9512C18.5 13.0345 18.6873 13.1262 18.862 13.2262C19.0367 13.3262 19.216 13.4512 19.4 13.6012L20.075 13.3762C20.3083 13.2928 20.5333 13.2928 20.75 13.3762C20.9667 13.4595 21.1333 13.6012 21.25 13.8012L21.45 14.1512C21.5667 14.3512 21.6083 14.5678 21.575 14.8012C21.5417 15.0345 21.4333 15.2262 21.25 15.3762L20.7 15.8512C20.7333 16.0512 20.75 16.2595 20.75 16.4762C20.75 16.6928 20.7333 16.9012 20.7 17.1012L21.25 17.5762C21.4333 17.7262 21.5417 17.9138 21.575 18.1392C21.6083 18.3645 21.5667 18.5768 21.45 18.7762L21.225 19.1512C21.1083 19.3345 20.95 19.4678 20.75 19.5512C20.55 19.6345 20.3417 19.6428 20.125 19.5762L19.4 19.3512C19.2167 19.4845 19.0373 19.5968 18.862 19.6882C18.6867 19.7795 18.4993 19.8672 18.3 19.9512L18.15 20.6762C18.1 20.9095 17.9877 21.0972 17.813 21.2392C17.6383 21.3812 17.434 21.4518 17.2 21.4512H16.8C16.5667 21.4512 16.3627 21.3762 16.188 21.2262C16.0133 21.0762 15.9007 20.8845 15.85 20.6512ZM17 18.4512C17.55 18.4512 18.021 18.2555 18.413 17.8642C18.805 17.4728 19.0007 17.0018 19 16.4512C18.9993 15.9005 18.8037 15.4298 18.413 15.0392C18.0223 14.6485 17.5513 14.4525 17 14.4512C16.4487 14.4498 15.978 14.6458 15.588 15.0392C15.198 15.4325 15.002 15.9032 15 16.4512C14.998 16.9992 15.194 17.4702 15.588 17.8642C15.982 18.2582 16.4527 18.4538 17 18.4512ZM10 10.4512C10.55 10.4512 11.021 10.2555 11.413 9.86417C11.805 9.47284 12.0007 9.00184 12 8.45117C11.9993 7.90051 11.8037 7.42984 11.413 7.03917C11.0223 6.6485 10.5513 6.45251 10 6.45117C9.44867 6.44984 8.978 6.64584 8.588 7.03917C8.198 7.43251 8.002 7.90317 8 8.45117C7.998 8.99917 8.194 9.47017 8.588 9.86417C8.982 10.2582 9.45267 10.4538 10 10.4512Z" fill="#555560"/>
</svg>
