<svg width="18" height="19" viewBox="0 0 18 19" fill="none" xmlns="http://www.w3.org/2000/svg">
<g clip-path="url(#clip0_2289_518)">
<path d="M9 2.45142C9.98491 2.45142 10.9602 2.64541 11.8701 3.02232C12.7801 3.39923 13.6069 3.95168 14.3033 4.64812C14.9997 5.34456 15.5522 6.17135 15.9291 7.08129C16.306 7.99124 16.5 8.96651 16.5 9.95142M9 2.45142V9.95142M9 2.45142C4.85786 2.45142 1.5 5.80928 1.5 9.95142C1.5 14.0936 4.85786 17.4514 9 17.4514C13.1421 17.4514 16.5 14.0936 16.5 9.95142M9 2.45142C13.1421 2.45142 16.5 5.80929 16.5 9.95142M16.5 9.95142L9 9.95142M16.5 9.95142C16.5 11.135 16.2199 12.3018 15.6825 13.3563C15.1452 14.4109 14.3659 15.3234 13.4084 16.019L9 9.95142" stroke="#667085" stroke-width="1.66667" stroke-linecap="round" stroke-linejoin="round"/>
</g>
<defs>
<clipPath id="clip0_2289_518">
<rect width="18" height="18" fill="white" transform="translate(0 0.951416)"/>
</clipPath>
</defs>
</svg>
