<svg width="24" height="25" viewBox="0 0 24 25" fill="none" xmlns="http://www.w3.org/2000/svg">
<path d="M21 11.4512H17C16.7167 11.4512 16.4793 11.3552 16.288 11.1632C16.0967 10.9712 16.0007 10.7338 16 10.4512C15.9993 10.1685 16.0953 9.93117 16.288 9.73917C16.4807 9.54717 16.718 9.45117 17 9.45117H21C21.2833 9.45117 21.521 9.54717 21.713 9.73917C21.905 9.93117 22.0007 10.1685 22 10.4512C21.9993 10.7338 21.9033 10.9715 21.712 11.1642C21.5207 11.3568 21.2833 11.4525 21 11.4512ZM10 12.4512C8.9 12.4512 7.95833 12.0595 7.175 11.2762C6.39167 10.4928 6 9.55117 6 8.45117C6 7.35117 6.39167 6.40951 7.175 5.62617C7.95833 4.84284 8.9 4.45117 10 4.45117C11.1 4.45117 12.0417 4.84284 12.825 5.62617C13.6083 6.40951 14 7.35117 14 8.45117C14 9.55117 13.6083 10.4928 12.825 11.2762C12.0417 12.0595 11.1 12.4512 10 12.4512ZM2 18.4512V17.6512C2 17.0845 2.146 16.5638 2.438 16.0892C2.73 15.6145 3.11733 15.2518 3.6 15.0012C4.63333 14.4845 5.68333 14.0972 6.75 13.8392C7.81667 13.5812 8.9 13.4518 10 13.4512C11.1 13.4505 12.1833 13.5798 13.25 13.8392C14.3167 14.0985 15.3667 14.4858 16.4 15.0012C16.8833 15.2512 17.271 15.6138 17.563 16.0892C17.855 16.5645 18.0007 17.0852 18 17.6512V18.4512C18 19.0012 17.8043 19.4722 17.413 19.8642C17.0217 20.2562 16.5507 20.4518 16 20.4512H4C3.45 20.4512 2.97933 20.2555 2.588 19.8642C2.19667 19.4728 2.00067 19.0018 2 18.4512ZM10 10.4512C10.55 10.4512 11.021 10.2555 11.413 9.86417C11.805 9.47284 12.0007 9.00184 12 8.45117C11.9993 7.90051 11.8037 7.42984 11.413 7.03917C11.0223 6.6485 10.5513 6.45251 10 6.45117C9.44867 6.44984 8.978 6.64584 8.588 7.03917C8.198 7.43251 8.002 7.90317 8 8.45117C7.998 8.99917 8.194 9.47017 8.588 9.86417C8.982 10.2582 9.45267 10.4538 10 10.4512ZM4 18.4512H16V17.6512C16 17.4678 15.9543 17.3012 15.863 17.1512C15.7717 17.0012 15.6507 16.8845 15.5 16.8012C14.6 16.3512 13.6917 16.0138 12.775 15.7892C11.8583 15.5645 10.9333 15.4518 10 15.4512C9.06667 15.4505 8.14167 15.5632 7.225 15.7892C6.30833 16.0152 5.4 16.3525 4.5 16.8012C4.35 16.8845 4.229 17.0012 4.137 17.1512C4.045 17.3012 3.99933 17.4678 4 17.6512V18.4512Z" fill="#DF3331"/>
</svg>
