<svg width="20" height="21" viewBox="0 0 20 21" fill="none" xmlns="http://www.w3.org/2000/svg">
<g clip-path="url(#clip0_2289_531)">
<path fill-rule="evenodd" clip-rule="evenodd" d="M9.99992 7.61808C9.11586 7.61808 8.26802 7.96927 7.6429 8.5944C7.01777 9.21952 6.66658 10.0674 6.66658 10.9514C6.66658 11.8355 7.01777 12.6833 7.6429 13.3084C8.26802 13.9336 9.11586 14.2848 9.99992 14.2848C10.884 14.2848 11.7318 13.9336 12.3569 13.3084C12.9821 12.6833 13.3333 11.8355 13.3333 10.9514C13.3333 10.0674 12.9821 9.21952 12.3569 8.5944C11.7318 7.96927 10.884 7.61808 9.99992 7.61808ZM8.82141 9.77291C9.13397 9.46035 9.55789 9.28475 9.99992 9.28475C10.4419 9.28475 10.8659 9.46035 11.1784 9.77291C11.491 10.0855 11.6666 10.5094 11.6666 10.9514C11.6666 11.3934 11.491 11.8174 11.1784 12.1299C10.8659 12.4425 10.4419 12.6181 9.99992 12.6181C9.55789 12.6181 9.13397 12.4425 8.82141 12.1299C8.50885 11.8174 8.33325 11.3934 8.33325 10.9514C8.33325 10.5094 8.50885 10.0855 8.82141 9.77291Z" fill="#5C5E64"/>
<path fill-rule="evenodd" clip-rule="evenodd" d="M9.15075 1.78475C8.77221 1.78475 8.44123 2.03989 8.34487 2.40596L7.92257 4.01029L6.58087 4.57588L5.55383 3.66215C5.22407 3.36878 4.72276 3.3834 4.41066 3.6955L2.744 5.36216C2.44208 5.66408 2.4172 6.14536 2.68639 6.47679L3.5865 7.58504L3.03453 8.94298L1.47713 9.30657C1.10002 9.39461 0.833252 9.73083 0.833252 10.1181V11.7848C0.833252 12.1605 1.08474 12.4898 1.44726 12.5887L3.057 13.0278L3.62412 14.3732L2.7113 15.3968C2.41729 15.7265 2.43163 16.2283 2.744 16.5407L4.41066 18.2073C4.71299 18.5097 5.19506 18.5341 5.52646 18.264L6.63432 17.3609L7.95888 17.9057L8.35861 19.4888C8.45205 19.8588 8.78493 20.1181 9.16658 20.1181H10.8333C11.2148 20.1181 11.5475 19.859 11.6411 19.4892L12.0419 17.9055L13.4107 17.3385C13.5485 17.454 13.7065 17.5897 13.8637 17.7266C14.0199 17.8626 14.1651 17.9908 14.2714 18.0851C14.3244 18.1321 14.3677 18.1707 14.3975 18.1973L14.4428 18.2378C14.7723 18.5335 15.2761 18.5204 15.5892 18.2073L17.2558 16.5407C17.5625 16.234 17.5827 15.7433 17.3022 15.4124L16.3944 14.342L16.9561 12.9853L18.5428 12.573C18.9102 12.4775 19.1666 12.1459 19.1666 11.7664V10.1181C19.1666 9.73698 18.9081 9.40444 18.5387 9.31048L16.9618 8.90929L16.4015 7.55587L17.303 6.48938C17.5827 6.1585 17.5622 5.66851 17.2558 5.36216L15.5892 3.6955C15.2816 3.3879 14.7891 3.36865 14.4585 3.65129L13.3998 4.55615L11.9988 3.98008L11.585 2.40623C11.4888 2.04002 11.1577 1.78475 10.7791 1.78475H9.15075ZM15.5346 15.9049L14.9644 16.4751L14.9582 16.4696C14.6504 16.2016 14.254 15.8625 14.0304 15.7027C13.7964 15.5354 13.4926 15.5006 13.2269 15.6107L11.0177 16.5257C10.7746 16.6264 10.5933 16.836 10.5287 17.0912L10.1845 18.4514H9.81565L9.47206 17.0907C9.40742 16.8347 9.22528 16.6245 8.98111 16.5241L6.80944 15.6307C6.52666 15.5144 6.20288 15.5623 5.96588 15.7555L5.05687 16.4965L4.47901 15.9187L5.21854 15.0894C5.43263 14.8493 5.48943 14.5075 5.36448 14.211L4.43531 12.0069C4.3359 11.7711 4.13364 11.594 3.88674 11.5266L2.49992 11.1483V10.7793L3.83354 10.4679C4.097 10.4064 4.31421 10.2208 4.41608 9.97021L5.31608 7.75605C5.43055 7.47444 5.38259 7.15284 5.19095 6.91688L4.45385 6.00933L5.03332 5.42986L5.86601 6.17068C6.10607 6.38426 6.44754 6.44079 6.74362 6.31598L8.94779 5.38681C9.18602 5.28638 9.36416 5.08107 9.42997 4.83105L9.79312 3.45142H10.1365L10.4923 4.80494C10.5587 5.05759 10.7398 5.26448 10.9814 5.36382L13.2372 6.29131C13.5264 6.41022 13.8578 6.35722 14.0955 6.15405L14.9556 5.41892L15.5354 5.99876L14.801 6.86763C14.5997 7.10573 14.5482 7.43626 14.6674 7.72432L15.5816 9.93266C15.6822 10.1755 15.8914 10.3567 16.1461 10.4215L17.4999 10.766V11.122L16.1353 11.4765C15.8824 11.5423 15.6749 11.7228 15.575 11.9643L14.66 14.1743C14.5405 14.4628 14.5924 14.7939 14.7943 15.0321L15.5346 15.9049Z" fill="#5C5E64"/>
</g>
<defs>
<clipPath id="clip0_2289_531">
<rect width="20" height="20" fill="white" transform="translate(0 0.951416)"/>
</clipPath>
</defs>
</svg>
